<?xml version="1.0" encoding="UTF-8" standalone="no"?>
<!-- Created with Inkscape (http://www.inkscape.org/) -->

<svg
   xmlns:dc="http://purl.org/dc/elements/1.1/"
   xmlns:cc="http://creativecommons.org/ns#"
   xmlns:rdf="http://www.w3.org/1999/02/22-rdf-syntax-ns#"
   xmlns:svg="http://www.w3.org/2000/svg"
   xmlns="http://www.w3.org/2000/svg"
   xmlns:sodipodi="http://sodipodi.sourceforge.net/DTD/sodipodi-0.dtd"
   xmlns:inkscape="http://www.inkscape.org/namespaces/inkscape"
   width="72"
   height="72"
   id="svg5834"
   version="1.1"
   inkscape:version="0.48.5 r10040"
   sodipodi:docname="iconlovetext2.svg"
   inkscape:export-filename="/home/felipefs/Desktop/lovetext.png"
   inkscape:export-xdpi="120"
   inkscape:export-ydpi="120">
  <defs
     id="defs5836" />
  <sodipodi:namedview
     id="base"
     pagecolor="#ffffff"
     bordercolor="#666666"
     borderopacity="1.0"
     inkscape:pageopacity="0.0"
     inkscape:pageshadow="2"
     inkscape:zoom="3.1609268"
     inkscape:cx="78.094988"
     inkscape:cy="3.9141211"
     inkscape:document-units="px"
     inkscape:current-layer="layer1"
     showgrid="true"
     inkscape:window-width="1366"
     inkscape:window-height="699"
     inkscape:window-x="0"
     inkscape:window-y="0"
     inkscape:window-maximized="1">
    <inkscape:grid
       type="xygrid"
       id="grid5870"
       empspacing="2"
       visible="true"
       enabled="true"
       snapvisiblegridlinesonly="true" />
  </sodipodi:namedview>
  <metadata
     id="metadata5839">
    <rdf:RDF>
      <cc:Work
         rdf:about="">
        <dc:format>image/svg+xml</dc:format>
        <dc:type
           rdf:resource="http://purl.org/dc/dcmitype/StillImage" />
        <dc:title></dc:title>
      </cc:Work>
    </rdf:RDF>
  </metadata>
  <g
     inkscape:label="Camada 1"
     inkscape:groupmode="layer"
     id="layer1"
     transform="translate(0,-980.36218)">
    <rect
       style="fill:#db6161;fill-opacity:1;fill-rule:nonzero;stroke:none"
       id="rect3804"
       width="72"
       height="72"
       x="0"
       y="980.36218"
       ry="7.9999976" />
    <g
       id="g4409"
       transform="matrix(1.1132179,0,0,1.1132179,-2.9626265,-116.58771)">
      <path
         sodipodi:nodetypes="sssss"
         inkscape:connector-curvature="0"
         id="path5014-6"
         d="m 62.561415,1026.2181 c 0,12.127 -9.307821,22.0492 -27.561415,22.0492 -18.253594,0 -27.5614154,-9.9222 -27.5614154,-22.0492 0,-16.5368 11.0245554,-26.45885 27.5614154,-26.45885 16.536849,0 27.561415,9.92205 27.561415,26.45885 z"
         style="fill:#db6161;fill-opacity:1;fill-rule:nonzero;stroke:none" />
      <path
         sodipodi:nodetypes="cc"
         inkscape:connector-curvature="0"
         id="path5012-5-8"
         d="m 28,995.149 c 4,1 7,4.00004 7,10"
         style="fill:none;stroke:#2e3b37;stroke-width:3;stroke-linecap:round;stroke-linejoin:miter;stroke-miterlimit:4;stroke-opacity:1;stroke-dasharray:none" />
      <path
         sodipodi:nodetypes="cacac"
         inkscape:connector-curvature="0"
         id="path5778-7"
         d="m 51.174513,987.18309 c 0.495262,4.50646 -1.043033,6.32217 -3.028598,8.69151 -3.210107,3.83059 -8.854771,3.99062 -13.145915,7.4778 -0.495263,-4.50642 -0.187554,-7.8884 2.190985,-10.68259 3.209108,-3.76988 10.380058,-2.83102 13.983528,-5.48672 z"
         style="fill:#13c027;fill-opacity:1;stroke:none" />
      <path
         sodipodi:nodetypes="scscs"
         inkscape:connector-curvature="0"
         id="path5012-56-3"
         d="m 29,1016.3622 c -1.49071,2.4819 3.13256,6.4904 6,8 1.76572,-1.5739 5.68229,-5.9532 5,-8 -1,-3 -5.09845,-1.2392 -6,1 -1.83704,-1.7038 -3.97023,-2.7146 -5,-1 z"
         style="fill:#2e3b37;fill-opacity:1;stroke:#2e3b37;stroke-width:3;stroke-linecap:round;stroke-linejoin:miter;stroke-miterlimit:4;stroke-opacity:1;stroke-dasharray:none" />
      <path
         transform="matrix(0.86764165,-0.10455986,0.10455986,0.86764165,-162.06723,889.92266)"
         d="m 225,187.5 c 0,1.38071 -1.11929,2.5 -2.5,2.5 -1.38071,0 -2.5,-1.11929 -2.5,-2.5 0,-1.38071 1.11929,-2.5 2.5,-2.5 1.38071,0 2.5,1.11929 2.5,2.5 z"
         sodipodi:ry="2.5"
         sodipodi:rx="2.5"
         sodipodi:cy="187.5"
         sodipodi:cx="222.5"
         id="path4817-1-3-5-1"
         style="fill:#2e3b37;fill-opacity:1;fill-rule:nonzero;stroke:none"
         sodipodi:type="arc" />
      <path
         transform="matrix(0.86764165,-0.10455986,0.10455986,0.86764165,-191.85174,893.512)"
         d="m 225,187.5 c 0,1.38071 -1.11929,2.5 -2.5,2.5 -1.38071,0 -2.5,-1.11929 -2.5,-2.5 0,-1.38071 1.11929,-2.5 2.5,-2.5 1.38071,0 2.5,1.11929 2.5,2.5 z"
         sodipodi:ry="2.5"
         sodipodi:rx="2.5"
         sodipodi:cy="187.5"
         sodipodi:cx="222.5"
         id="path4817-1-8-4-9-0"
         style="fill:#2e3b37;fill-opacity:1;fill-rule:nonzero;stroke:none"
         sodipodi:type="arc" />
      <path
         sodipodi:nodetypes="cc"
         inkscape:connector-curvature="0"
         id="path5012-4-7"
         d="m 31.23236,1035.8886 c 3.21774,1.6267 7.18901,1.1481 9.92817,-1.1965"
         style="fill:none;stroke:#2e3b37;stroke-width:3;stroke-linecap:round;stroke-linejoin:miter;stroke-miterlimit:4;stroke-opacity:1;stroke-dasharray:none" />
    </g>
  </g>
</svg>
